<?xml version="1.0" encoding="UTF-8" standalone="no"?>
<!-- Created with Inkscape (http://www.inkscape.org/) -->

<svg
   xmlns:dc="http://purl.org/dc/elements/1.1/"
   xmlns:cc="http://creativecommons.org/ns#"
   xmlns:rdf="http://www.w3.org/1999/02/22-rdf-syntax-ns#"
   xmlns:svg="http://www.w3.org/2000/svg"
   xmlns="http://www.w3.org/2000/svg"
   xmlns:sodipodi="http://sodipodi.sourceforge.net/DTD/sodipodi-0.dtd"
   xmlns:inkscape="http://www.inkscape.org/namespaces/inkscape"
   width="297mm"
   height="210mm"
   viewBox="0 0 297 210"
   version="1.1"
   id="svg821"
   inkscape:version="0.92.4 (5da689c313, 2019-01-14)"
   sodipodi:docname="ridge.svg">
  <defs
     id="defs815">
    <marker
       inkscape:stockid="Arrow1Mstart"
       orient="auto"
       refY="0.0"
       refX="0.0"
       id="marker1209"
       style="overflow:visible"
       inkscape:isstock="true">
      <path
         id="path1207"
         d="M 0.0,0.0 L 5.0,-5.0 L -12.5,0.0 L 5.0,5.0 L 0.0,0.0 z "
         style="fill-rule:evenodd;stroke:#c6cddb;stroke-width:1pt;stroke-opacity:1;fill:#000000;fill-opacity:0"
         transform="scale(0.4) translate(10,0)" />
    </marker>
    <marker
       inkscape:stockid="DotM"
       orient="auto"
       refY="0.0"
       refX="0.0"
       id="DotM"
       style="overflow:visible"
       inkscape:isstock="true">
      <path
         id="path966"
         d="M -2.5,-1.0 C -2.5,1.7600000 -4.7400000,4.0 -7.5,4.0 C -10.260000,4.0 -12.5,1.7600000 -12.5,-1.0 C -12.5,-3.7600000 -10.260000,-6.0 -7.5,-6.0 C -4.7400000,-6.0 -2.5,-3.7600000 -2.5,-1.0 z "
         style="fill-rule:evenodd;stroke:#c6cddb;stroke-width:1pt;stroke-opacity:1;fill:#000000;fill-opacity:0"
         transform="scale(0.4) translate(7.4, 1)" />
    </marker>
    <marker
       inkscape:stockid="Arrow1Lstart"
       orient="auto"
       refY="0.0"
       refX="0.0"
       id="marker1203"
       style="overflow:visible"
       inkscape:isstock="true">
      <path
         id="path1201"
         d="M 0.0,0.0 L 5.0,-5.0 L -12.5,0.0 L 5.0,5.0 L 0.0,0.0 z "
         style="fill-rule:evenodd;stroke:#c6cddb;stroke-width:1pt;stroke-opacity:1;fill:#000000;fill-opacity:0"
         transform="scale(0.8) translate(12.5,0)" />
    </marker>
    <marker
       inkscape:stockid="Arrow2Lstart"
       orient="auto"
       refY="0.0"
       refX="0.0"
       id="marker1199"
       style="overflow:visible"
       inkscape:isstock="true">
      <path
         id="path1197"
         style="fill-rule:evenodd;stroke-width:0.625;stroke-linejoin:round;stroke:#c6cddb;stroke-opacity:1;fill:#000000;fill-opacity:0"
         d="M 8.7185878,4.0337352 L -2.2072895,0.016013256 L 8.7185884,-4.0017078 C 6.9730900,-1.6296469 6.9831476,1.6157441 8.7185878,4.0337352 z "
         transform="scale(1.1) translate(1,0)" />
    </marker>
    <marker
       inkscape:stockid="Arrow2Lstart"
       orient="auto"
       refY="0.0"
       refX="0.0"
       id="Arrow2Lstart"
       style="overflow:visible"
       inkscape:isstock="true">
      <path
         id="path920"
         style="fill-rule:evenodd;stroke-width:0.625;stroke-linejoin:round;stroke:#c6cddb;stroke-opacity:1;fill:#000000;fill-opacity:0"
         d="M 8.7185878,4.0337352 L -2.2072895,0.016013256 L 8.7185884,-4.0017078 C 6.9730900,-1.6296469 6.9831476,1.6157441 8.7185878,4.0337352 z "
         transform="scale(1.1) translate(1,0)" />
    </marker>
    <marker
       inkscape:stockid="Arrow1Mstart"
       orient="auto"
       refY="0.0"
       refX="0.0"
       id="marker1193"
       style="overflow:visible"
       inkscape:isstock="true">
      <path
         id="path1191"
         d="M 0.0,0.0 L 5.0,-5.0 L -12.5,0.0 L 5.0,5.0 L 0.0,0.0 z "
         style="fill-rule:evenodd;stroke:#c6cddb;stroke-width:1pt;stroke-opacity:1;fill:#000000;fill-opacity:0"
         transform="scale(0.4) translate(10,0)" />
    </marker>
    <marker
       inkscape:stockid="Arrow1Mstart"
       orient="auto"
       refY="0.0"
       refX="0.0"
       id="Arrow1Mstart"
       style="overflow:visible"
       inkscape:isstock="true">
      <path
         id="path908"
         d="M 0.0,0.0 L 5.0,-5.0 L -12.5,0.0 L 5.0,5.0 L 0.0,0.0 z "
         style="fill-rule:evenodd;stroke:#c6cddb;stroke-width:1pt;stroke-opacity:1;fill:#000000;fill-opacity:0"
         transform="scale(0.4) translate(10,0)" />
    </marker>
    <marker
       inkscape:stockid="Arrow1Mend"
       orient="auto"
       refY="0.0"
       refX="0.0"
       id="Arrow1Mend"
       style="overflow:visible;"
       inkscape:isstock="true">
      <path
         id="path911"
         d="M 0.0,0.0 L 5.0,-5.0 L -12.5,0.0 L 5.0,5.0 L 0.0,0.0 z "
         style="fill-rule:evenodd;stroke:#c6cddb;stroke-width:1pt;stroke-opacity:1;fill:#000000;fill-opacity:0"
         transform="scale(0.4) rotate(180) translate(10,0)" />
    </marker>
    <marker
       inkscape:stockid="Arrow1Lend"
       orient="auto"
       refY="0.0"
       refX="0.0"
       id="marker1185"
       style="overflow:visible;"
       inkscape:isstock="true">
      <path
         id="path1183"
         d="M 0.0,0.0 L 5.0,-5.0 L -12.5,0.0 L 5.0,5.0 L 0.0,0.0 z "
         style="fill-rule:evenodd;stroke:#c6cddb;stroke-width:1pt;stroke-opacity:1;fill:#000000;fill-opacity:0"
         transform="scale(0.8) rotate(180) translate(12.5,0)" />
    </marker>
    <marker
       inkscape:stockid="Arrow1Lend"
       orient="auto"
       refY="0.0"
       refX="0.0"
       id="marker1181"
       style="overflow:visible;"
       inkscape:isstock="true">
      <path
         id="path1179"
         d="M 0.0,0.0 L 5.0,-5.0 L -12.5,0.0 L 5.0,5.0 L 0.0,0.0 z "
         style="fill-rule:evenodd;stroke:#c6cddb;stroke-width:1pt;stroke-opacity:1;fill:#000000;fill-opacity:0"
         transform="scale(0.8) rotate(180) translate(12.5,0)" />
    </marker>
    <marker
       inkscape:stockid="Arrow1Lstart"
       orient="auto"
       refY="0.0"
       refX="0.0"
       id="marker1177"
       style="overflow:visible"
       inkscape:isstock="true">
      <path
         id="path1175"
         d="M 0.0,0.0 L 5.0,-5.0 L -12.5,0.0 L 5.0,5.0 L 0.0,0.0 z "
         style="fill-rule:evenodd;stroke:#c6cddb;stroke-width:1pt;stroke-opacity:1;fill:#000000;fill-opacity:0"
         transform="scale(0.8) translate(12.5,0)" />
    </marker>
    <marker
       inkscape:stockid="Arrow1Lend"
       orient="auto"
       refY="0.0"
       refX="0.0"
       id="Arrow1Lend"
       style="overflow:visible;"
       inkscape:isstock="true">
      <path
         id="path905"
         d="M 0.0,0.0 L 5.0,-5.0 L -12.5,0.0 L 5.0,5.0 L 0.0,0.0 z "
         style="fill-rule:evenodd;stroke:#c6cddb;stroke-width:1pt;stroke-opacity:1;fill:#000000;fill-opacity:0"
         transform="scale(0.8) rotate(180) translate(12.5,0)" />
    </marker>
    <marker
       inkscape:stockid="Arrow1Lstart"
       orient="auto"
       refY="0.0"
       refX="0.0"
       id="marker1171"
       style="overflow:visible"
       inkscape:isstock="true">
      <path
         id="path1169"
         d="M 0.0,0.0 L 5.0,-5.0 L -12.5,0.0 L 5.0,5.0 L 0.0,0.0 z "
         style="fill-rule:evenodd;stroke:#c6cddb;stroke-width:1pt;stroke-opacity:1;fill:#000000;fill-opacity:0"
         transform="scale(0.8) translate(12.5,0)" />
    </marker>
    <marker
       inkscape:stockid="Arrow1Send"
       orient="auto"
       refY="0.0"
       refX="0.0"
       id="Arrow1Send"
       style="overflow:visible;"
       inkscape:isstock="true">
      <path
         id="path917"
         d="M 0.0,0.0 L 5.0,-5.0 L -12.5,0.0 L 5.0,5.0 L 0.0,0.0 z "
         style="fill-rule:evenodd;stroke:#c6cddb;stroke-width:1pt;stroke-opacity:0.2;fill:#000000;fill-opacity:0"
         transform="scale(0.2) rotate(180) translate(6,0)" />
    </marker>
    <marker
       inkscape:stockid="Arrow1Lstart"
       orient="auto"
       refY="0.0"
       refX="0.0"
       id="marker1165"
       style="overflow:visible"
       inkscape:isstock="true">
      <path
         id="path902"
         d="M 0.0,0.0 L 5.0,-5.0 L -12.5,0.0 L 5.0,5.0 L 0.0,0.0 z "
         style="fill-rule:evenodd;stroke:#c6cddb;stroke-width:1pt;stroke-opacity:0.2;fill:#000000;fill-opacity:0"
         transform="scale(0.8) translate(12.5,0)" />
    </marker>
    <marker
       inkscape:stockid="Tail"
       orient="auto"
       refY="0"
       refX="0"
       id="Tail"
       style="overflow:visible"
       inkscape:isstock="true">
      <g
         id="g2078"
         transform="scale(-1.2)"
         style="fill:#000000;fill-opacity:1;stroke:#000000;stroke-opacity:1">
        <path
           id="path2066"
           d="M -3.8048674,-3.9585227 0.54352094,0"
           style="fill:#000000;fill-opacity:1;fill-rule:evenodd;stroke:#000000;stroke-width:0.80000001;stroke-linecap:round;stroke-opacity:1"
           inkscape:connector-curvature="0" />
        <path
           id="path2068"
           d="M -1.2866832,-3.9585227 3.0617053,0"
           style="fill:#000000;fill-opacity:1;fill-rule:evenodd;stroke:#000000;stroke-width:0.80000001;stroke-linecap:round;stroke-opacity:1"
           inkscape:connector-curvature="0" />
        <path
           id="path2070"
           d="M 1.3053582,-3.9585227 5.6537466,0"
           style="fill:#000000;fill-opacity:1;fill-rule:evenodd;stroke:#000000;stroke-width:0.80000001;stroke-linecap:round;stroke-opacity:1"
           inkscape:connector-curvature="0" />
        <path
           id="path2072"
           d="M -3.8048674,4.1775838 0.54352094,0.21974226"
           style="fill:#000000;fill-opacity:1;fill-rule:evenodd;stroke:#000000;stroke-width:0.80000001;stroke-linecap:round;stroke-opacity:1"
           inkscape:connector-curvature="0" />
        <path
           id="path2074"
           d="M -1.2866832,4.1775838 3.0617053,0.21974226"
           style="fill:#000000;fill-opacity:1;fill-rule:evenodd;stroke:#000000;stroke-width:0.80000001;stroke-linecap:round;stroke-opacity:1"
           inkscape:connector-curvature="0" />
        <path
           id="path2076"
           d="M 1.3053582,4.1775838 5.6537466,0.21974226"
           style="fill:#000000;fill-opacity:1;fill-rule:evenodd;stroke:#000000;stroke-width:0.80000001;stroke-linecap:round;stroke-opacity:1"
           inkscape:connector-curvature="0" />
      </g>
    </marker>
    <marker
       inkscape:stockid="Arrow1Lstart"
       orient="auto"
       refY="0"
       refX="0"
       id="Arrow1Lstart"
       style="overflow:visible"
       inkscape:isstock="true">
      <path
         id="path2030"
         d="M 0,0 5,-5 -12.5,0 5,5 Z"
         style="fill:#000000;fill-opacity:1;fill-rule:evenodd;stroke:#000000;stroke-width:1.00000003pt;stroke-opacity:1"
         transform="matrix(0.8,0,0,0.8,10,0)"
         inkscape:connector-curvature="0" />
    </marker>
  </defs>
  <sodipodi:namedview
     id="base"
     pagecolor="#ffffff"
     bordercolor="#666666"
     borderopacity="1.0"
     inkscape:pageopacity="0.0"
     inkscape:pageshadow="2"
     inkscape:zoom="90.509668"
     inkscape:cx="677.00961"
     inkscape:cy="348.52916"
     inkscape:document-units="mm"
     inkscape:current-layer="layer1"
     showgrid="false"
     inkscape:window-width="1276"
     inkscape:window-height="985"
     inkscape:window-x="1366"
     inkscape:window-y="18"
     inkscape:window-maximized="0" />
  <metadata
     id="metadata818">
    <rdf:RDF>
      <cc:Work
         rdf:about="">
        <dc:format>image/svg+xml</dc:format>
        <dc:type
           rdf:resource="http://purl.org/dc/dcmitype/StillImage" />
        <dc:title></dc:title>
      </cc:Work>
    </rdf:RDF>
  </metadata>
  <g
     inkscape:label="Layer 1"
     inkscape:groupmode="layer"
     id="layer1"
     transform="translate(0,-87)">
    <path
       style="opacity:0.98999999;fill:#000000;fill-opacity:0;stroke:#c6cddb;stroke-width:0.21978897;stroke-linecap:round;stroke-linejoin:miter;stroke-miterlimit:4;stroke-dasharray:0.21978898, 0.65936696;stroke-dashoffset:0;stroke-opacity:1;marker-start:url(#marker1209);marker-end:url(#DotM);paint-order:stroke markers fill"
       d="m 73.423894,210.32896 c 3.855613,-0.22361 5.101954,-4.47372 8.158493,-5.91635 2.181161,-1.02948 3.729907,-2.64074 5.384006,-4.13893 3.532179,-3.1993 5.6535,-1.16561 7.992703,0.72276 1.628788,1.31487 2.217078,3.07333 4.39017,3.27126 2.611594,0.23791 4.198054,2.58948 5.995964,4.20605 1.60256,1.47044 3.99946,2.92679 5.15117,0.64409 0,0 1.31026,-2.58549 1.65731,-2.38869 0.91758,0.52034 1.16542,1.0989 1.67322,1.25642 0.49378,-0.18119 0.85316,-0.53694 1.53891,-0.69177 0.99376,-0.44875 3.13677,-0.69152 3.13677,-0.69152 0,0 1.1421,1.39266 1.66545,2.32936 0.0631,0.11297 2.22679,-2.55725 3.86668,-2.14959 1.22241,0.30386 1.83543,2.03476 3.09302,1.96356 4.97944,-0.28193 9.50913,-6.39011 11.91107,-9.05517 4.80002,-4.50214 8.83094,-0.0177 9.35908,0.0358 0.70653,-0.0509 1.80105,-2.44083 3.82011,-2.8794 4.76646,-0.89138 11.14711,4.657 14.07708,7.08301 3.05391,1.54932 6.59192,3.6723 10.02674,2.42494 0.51636,-0.48154 2.7951,-1.5402 2.7951,-1.5402 l -1.0986,1.60029 3.89163,-0.8148 1.53049,2.43614 2.51539,-0.49793 1.5948,1.29457 c 1.4143,2.3847 7.07462,-4.90025 7.14459,-4.25878 0.07,0.64147 -0.46523,3.01124 -0.46523,3.01124 3.44855,-0.0893 7.13392,-4.54988 10.58329,-4.50242 0.49634,0.006 0.87295,0.59249 1.3693,0.58543 3.77799,-0.0536 6.55916,-5.40229 10.44596,-5.21248 2.90751,0.14196 5.25863,2.90098 7.39697,4.64218 1.55712,1.07543 2.03799,2.50632 2.88808,3.05385 0.82669,0.53246 0.56503,3.43615 2.58493,4.13899 0.0347,0.0119 0.10414,0.0408 0.16281,0.0382"
       id="path1457-3"
       inkscape:connector-curvature="0"
       sodipodi:nodetypes="cssssccscccsssccccccccccczcssacssc" />
  </g>
</svg>
